<?xml version="1.0" encoding="UTF-8" standalone="no"?>
<!DOCTYPE svg PUBLIC "-//W3C//DTD SVG 1.1//EN"
 "http://www.w3.org/Graphics/SVG/1.1/DTD/svg11.dtd">
<!-- Generated by graphviz version 2.49.0 (20210828.1703)
 -->
<!-- Pages: 1 -->
<svg width="417pt" height="140pt"
 viewBox="0.00 0.00 417.00 139.78" xmlns="http://www.w3.org/2000/svg" xmlns:xlink="http://www.w3.org/1999/xlink">
<g id="graph0" class="graph" transform="scale(1 1) rotate(0) translate(4 135.78)">
<polygon fill="white" stroke="transparent" points="-4,4 -4,-135.78 413,-135.78 413,4 -4,4"/>
<!-- Bird position. -->
<g id="node1" class="node">
<title>Bird position.</title>
<polygon fill="lightgray" stroke="black" points="67,-131.78 0,-131.78 0,-113.78 67,-113.78 67,-131.78"/>
<text text-anchor="middle" x="33.5" y="-120.58" font-family="Times New Roman,serif" font-size="9.00">Bird position.</text>
</g>
<!-- Bird Jump -->
<g id="node4" class="node">
<title>Bird Jump</title>
<ellipse fill="lightblue" stroke="black" cx="158.5" cy="-38.89" rx="38.78" ry="38.78"/>
<text text-anchor="middle" x="158.5" y="-36.69" font-family="Times New Roman,serif" font-size="9.00">Bird Jump</text>
</g>
<!-- Bird position.&#45;&gt;Bird Jump -->
<g id="edge1" class="edge">
<title>Bird position.&#45;&gt;Bird Jump</title>
<path fill="none" stroke="green" stroke-width="0.11" d="M45.94,-113.63C62.57,-102.74 92.84,-82.91 117.8,-66.55"/>
<polygon fill="green" stroke="green" stroke-width="0.11" points="119.93,-69.34 126.38,-60.93 116.1,-63.49 119.93,-69.34"/>
</g>
<!-- Distance between bird and top pipe -->
<g id="node2" class="node">
<title>Distance between bird and top pipe</title>
<polygon fill="lightgray" stroke="black" points="231.5,-131.78 85.5,-131.78 85.5,-113.78 231.5,-113.78 231.5,-131.78"/>
<text text-anchor="middle" x="158.5" y="-120.58" font-family="Times New Roman,serif" font-size="9.00">Distance between bird and top pipe</text>
</g>
<!-- Distance between bird and top pipe&#45;&gt;Bird Jump -->
<g id="edge2" class="edge">
<title>Distance between bird and top pipe&#45;&gt;Bird Jump</title>
<path fill="none" stroke="green" stroke-width="0.62" d="M158.5,-113.63C158.5,-107.32 158.5,-98.01 158.5,-88.11"/>
<polygon fill="green" stroke="green" stroke-width="0.62" points="162,-88.11 158.5,-78.11 155,-88.11 162,-88.11"/>
</g>
<!-- Distance between bird and bottom pipe -->
<g id="node3" class="node">
<title>Distance between bird and bottom pipe</title>
<polygon fill="lightgray" stroke="black" points="409,-131.78 250,-131.78 250,-113.78 409,-113.78 409,-131.78"/>
<text text-anchor="middle" x="329.5" y="-120.58" font-family="Times New Roman,serif" font-size="9.00">Distance between bird and bottom pipe</text>
</g>
<!-- Distance between bird and bottom pipe&#45;&gt;Bird Jump -->
<g id="edge3" class="edge">
<title>Distance between bird and bottom pipe&#45;&gt;Bird Jump</title>
<path fill="none" stroke="red" stroke-width="0.41" d="M312.79,-113.78C287.49,-101.66 238.59,-78.24 202.59,-61.01"/>
<polygon fill="red" stroke="red" stroke-width="0.41" points="203.81,-57.71 193.28,-56.55 200.79,-64.02 203.81,-57.71"/>
</g>
</g>
</svg>
